<svg xmlns="http://www.w3.org/2000/svg" version="1.1" xmlns:xlink="http://www.w3.org/1999/xlink" xmlns:svgjs="http://svgjs.dev/svgjs" width="2000" height="2000" viewBox="0 0 2000 2000"><g transform="matrix(1,0,0,1,-0.9999999999998863,-0.9993836317061096)"><svg viewBox="0 0 280 280" data-background-color="#ef75b5" preserveAspectRatio="xMidYMid meet" height="2000" width="2000" xmlns="http://www.w3.org/2000/svg" xmlns:xlink="http://www.w3.org/1999/xlink"><g id="tight-bounds" transform="matrix(1,0,0,1,0.13999999999998636,0.1399137084388542)"><svg viewBox="0 0 279.72 279.72" height="279.72" width="279.72"><g><svg viewBox="0 0 279.72 279.72" height="279.72" width="279.72"><g><svg viewBox="0 0 279.72 279.72" height="279.72" width="279.72"><g id="textblocktransform"><svg viewBox="0 0 279.72 279.72" height="279.72" width="279.72" id="textblock"><g><svg viewBox="0 0 279.72 279.72" height="279.72" width="279.72"><g transform="matrix(1,0,0,1,57.446704652707865,57.446704652707865)"><svg viewBox="0 0 164.8265906945843 164.8265906945843" height="164.8265906945843" width="164.8265906945843"><g id="icon-0"><circle r="82" cx="82.41329534729215" cy="82.41329534729215" fill="#000000" data-fill-palette-color="accent"></circle><svg xmlns="http://www.w3.org/2000/svg" xmlns:xlink="http://www.w3.org/1999/xlink" version="1.1" x="24.72398860418764" y="24.723988604187646" viewBox="19.054823967072444 17.190241958275287 61.8890487734455 65.6187580417247" enable-background="new 0 0 100 100" xml:space="preserve" height="115.378613486209" width="115.378613486209" class="icon-jxe-0" data-fill-palette-color="quaternary" id="jxe-0"><path d="M80.898 22.362L79.88 18.323A1.5 1.5 0 0 0 78.058 17.236L63.084 21.01A1.5 1.5 0 0 0 62.081 21.851L56.585 34.124A42 42 0 0 0 49.913 33.594C45.404 33.594 41.335 34.249 38.028 35.379L36.228 32.06C37.678 31.45 39.131 31.108 40.377 31.108H40.386A1.5 1.5 0 0 0 41.886 29.638C41.911 28.329 43.66 26.005 46.85 24.276A1.501 1.501 0 0 0 46.24 21.461L29.045 20.269A1.48 1.48 0 0 0 27.63 21.036L19.246 36.096A1.497 1.497 0 0 0 20.556 38.325C20.8 38.325 21.046 38.265 21.271 38.143 23.149 37.125 25.14 36.541 26.736 36.541 27.476 36.541 28.093 36.672 28.474 36.909A1.5 1.5 0 0 0 30.529 36.447C31.193 35.415 32.275 34.377 33.59 33.487L35.24 36.53C32.92 37.692 31.208 39.149 30.281 40.802 26.902 45.403 25.109 50.897 25.109 56.72 25.109 71.106 36.236 82.809 49.913 82.809S74.718 71.106 74.718 56.72C74.718 50.919 72.938 45.449 69.588 40.862 68.539 38.954 66.432 37.308 63.567 36.066L67.498 27.286 79.811 24.183A1.5 1.5 0 0 0 80.898 22.362M39.522 27.197L34.334 23.642 41.863 24.163C40.829 25.131 40.031 26.165 39.522 27.197M23.896 33.91L27.57 27.308 27.718 33.599C26.578 33.469 25.259 33.574 23.896 33.91M30.68 31.921L30.509 24.657 36.503 28.764A17.8 17.8 0 0 0 30.68 31.921M49.913 36.594C51.836 36.594 53.634 36.737 55.309 36.973L53.872 40.182A42 42 0 0 0 49.913 39.977C46.768 39.977 43.752 40.321 41.046 40.944L39.494 38.083C42.324 37.177 45.872 36.594 49.913 36.594M59.862 44.342C62.063 44.992 63.925 45.852 65.261 46.868 62.428 49.024 56.894 50.75 49.912 50.75 42.924 50.75 37.384 49.021 34.554 46.861 35.802 45.904 37.515 45.088 39.535 44.451L41.055 47.254A1.5 1.5 0 0 0 43.088 47.857 1.5 1.5 0 0 0 43.692 45.824L42.533 43.687A38 38 0 0 1 49.913 42.976C50.813 42.976 51.699 43.018 52.575 43.078L52.097 44.144C51.744 44.932 51.923 45.834 52.586 46.622 53.011 47.126 53.635 47.578 54.345 47.895 55.025 48.199 55.721 48.36 56.361 48.36 57.442 48.36 58.272 47.891 58.638 47.074zM36.687 39.197L38.089 41.783C35.94 42.515 34.086 43.445 32.664 44.539A2.6 2.6 0 0 1 32.49 43.672C32.49 43.239 32.614 42.801 32.844 42.364L32.851 42.353C32.857 42.347 32.859 42.339 32.864 42.332 33.465 41.22 34.792 40.128 36.687 39.197M49.913 79.81C37.891 79.81 28.109 69.453 28.109 56.721 28.109 53.157 28.876 49.741 30.32 46.62 30.914 47.647 31.811 48.598 32.973 49.447A34.7 34.7 0 0 0 32.428 58.159 1.5 1.5 0 1 0 35.422 57.973 32 32 0 0 1 35.736 51.044C39.356 52.733 44.295 53.749 49.913 53.749 53.629 53.749 57.049 53.304 59.989 52.516A45 45 0 0 1 60.134 55.922C60.134 58.351 59.942 60.737 59.562 63.015A1.5 1.5 0 0 0 62.521 63.51C62.928 61.07 63.134 58.517 63.134 55.923 63.134 54.451 63.047 52.994 62.914 51.558 66.045 50.317 68.354 48.615 69.507 46.62A23.95 23.95 0 0 1 71.718 56.722C71.718 69.452 61.936 79.81 49.913 79.81M66.862 42.171C66.894 42.229 66.925 42.287 66.966 42.342 67.205 42.785 67.336 43.233 67.336 43.672 67.336 43.962 67.264 44.255 67.158 44.548 65.598 43.352 63.517 42.35 61.094 41.59L62.328 38.835C64.554 39.794 66.132 40.965 66.862 42.171M66.061 24.556A1.5 1.5 0 0 0 65.058 25.397L56.129 45.336A2.4 2.4 0 0 1 55.57 45.157 2.5 2.5 0 0 1 55.064 44.859L64.521 23.74 77.337 20.511 77.622 21.641z" fill="#ffffff" data-fill-palette-color="quaternary"></path></svg></g></svg></g><g id="text-0"><path d="M19.469 88.247l-0.695 2c-1.091-0.379-2.05-0.541-2.878-0.485-0.819 0.052-1.504 0.296-2.056 0.733-0.544 0.433-0.939 1.036-1.187 1.809v0l-0.505 1.454 14.231 4.946c0.549 0.191 1.071 0.386 1.566 0.587 0.497 0.194 0.87 0.356 1.119 0.485v0c0.081-0.358 0.209-0.807 0.382-1.347 0.18-0.538 0.305-0.909 0.376-1.113v0l2.336 0.811-3.08 8.862-2.001-0.695c0.143-0.472 0.217-0.883 0.224-1.231 0.007-0.348-0.142-0.671-0.446-0.97-0.304-0.299-0.861-0.589-1.671-0.87v0l-14.537-5.052-0.486 1.397c-0.382 1.161-0.303 2.208 0.239 3.14 0.533 0.936 1.619 1.689 3.259 2.259v0l-0.695 2-6.8-2.534 6.39-18.385z" fill="#000000" data-fill-palette-color="primary"></path><path d="M35.079 90.901l-1.839-0.986c0.284-0.53 0.382-0.964 0.295-1.302-0.087-0.338-0.307-0.643-0.659-0.916-0.352-0.273-0.772-0.54-1.26-0.802v0l-4.76-2.551c-0.339-0.182-0.716-0.395-1.128-0.639-0.419-0.248-0.823-0.502-1.212-0.764v0c-0.145 0.313-0.323 0.674-0.533 1.082-0.205 0.411-0.355 0.726-0.449 0.943v0l-2.152-1.153 0.608-1.134c0.392-0.732 0.658-1.456 0.796-2.172 0.144-0.712 0.172-1.214 0.083-1.507v0l0.742-1.384c0.213 0.06 0.583 0.221 1.111 0.48 0.528 0.26 0.991 0.496 1.389 0.711v0c-0.351-0.847-0.592-1.597-0.725-2.251-0.139-0.657-0.179-1.253-0.121-1.79 0.061-0.542 0.212-1.04 0.455-1.492v0c0.354-0.661 0.847-1.136 1.477-1.427 0.634-0.296 1.365-0.223 2.192 0.221v0c0.286 0.153 0.548 0.378 0.788 0.675 0.239 0.297 0.387 0.644 0.442 1.042 0.055 0.397-0.048 0.84-0.31 1.328v0c-0.201 0.375-0.522 0.701-0.961 0.979-0.44 0.278-0.996 0.271-1.668-0.02v0c-0.204 0.381-0.252 0.842-0.143 1.383 0.115 0.544 0.303 1.078 0.566 1.603 0.266 0.518 0.551 0.931 0.854 1.239v0l4.617 2.474c0.262 0.14 0.629 0.349 1.101 0.626 0.473 0.276 0.917 0.549 1.333 0.817v0c0.118-0.32 0.273-0.666 0.464-1.038 0.186-0.376 0.33-0.659 0.432-0.85v0l2.153 1.154z" fill="#000000" data-fill-palette-color="primary"></path><path d="M48.097 70.773v0c-0.915 1.239-2.01 2.16-3.286 2.762-1.271 0.607-2.613 0.833-4.028 0.679-1.418-0.149-2.801-0.721-4.149-1.716v0c-1.429-1.055-2.461-2.279-3.095-3.671-0.639-1.387-0.892-2.795-0.76-4.225 0.142-1.432 0.644-2.732 1.507-3.9v0c0.919-1.244 2.006-2.159 3.26-2.744 1.264-0.586 2.601-0.8 4.012-0.64 1.406 0.165 2.8 0.757 4.18 1.776v0c1.445 1.067 2.501 2.27 3.166 3.609 0.656 1.341 0.919 2.707 0.79 4.098-0.138 1.393-0.671 2.716-1.597 3.972zM46.341 69.313v0c0.484-0.701 0.625-1.398 0.424-2.093-0.207-0.698-0.611-1.379-1.213-2.041-0.606-0.657-1.271-1.253-1.993-1.787v0c-0.636-0.469-1.317-0.901-2.042-1.294-0.724-0.384-1.432-0.671-2.122-0.861-0.685-0.187-1.321-0.224-1.908-0.111-0.587 0.112-1.063 0.433-1.428 0.961v0c-0.481 0.686-0.631 1.394-0.448 2.125 0.177 0.727 0.556 1.431 1.137 2.111 0.571 0.682 1.237 1.304 1.998 1.865v0c0.875 0.646 1.806 1.187 2.794 1.623 0.983 0.432 1.902 0.636 2.759 0.613 0.856-0.023 1.537-0.393 2.042-1.111z" fill="#000000" data-fill-palette-color="primary"></path><path d="M66.171 62.017l-6.046 5.86-1.46-1.506c0.432-0.418 0.665-0.804 0.699-1.157 0.025-0.353-0.089-0.713-0.341-1.08-0.247-0.372-0.566-0.759-0.957-1.161v0l-9.456-9.756c-0.268-0.276-0.562-0.594-0.881-0.953-0.324-0.363-0.634-0.726-0.929-1.089v0c-0.233 0.254-0.515 0.546-0.845 0.875-0.33 0.339-0.573 0.598-0.728 0.777v0l-1.7-1.753c0.723-0.701 1.289-1.325 1.699-1.872 0.41-0.548 0.706-1.014 0.889-1.398 0.178-0.379 0.276-0.667 0.292-0.863v0l1.135-1.1c0.18 0.127 0.385 0.295 0.616 0.504 0.231 0.209 0.422 0.372 0.573 0.489v0c0.092-0.983 0.313-1.822 0.662-2.519 0.35-0.697 0.765-1.278 1.246-1.743v0c0.922-0.893 1.962-1.441 3.121-1.642 1.164-0.197 2.365-0.049 3.604 0.443 1.244 0.497 2.439 1.337 3.586 2.52v0c1.194 1.232 2.026 2.566 2.496 4.002 0.47 1.436 0.548 2.846 0.235 4.231-0.318 1.38-1.054 2.63-2.208 3.749v0c-0.417 0.404-0.833 0.723-1.247 0.955-0.41 0.237-0.812 0.444-1.207 0.619v0l2.144 2.211c0.207 0.213 0.496 0.521 0.867 0.924 0.371 0.402 0.714 0.795 1.028 1.177v0c0.219-0.269 0.47-0.549 0.751-0.841 0.286-0.287 0.507-0.506 0.662-0.656v0zM59.424 54.503v0c0.694-0.701 1.04-1.446 1.038-2.234-0.002-0.788-0.25-1.587-0.744-2.397-0.484-0.81-1.091-1.591-1.819-2.343v0c-0.686-0.708-1.42-1.295-2.201-1.761-0.781-0.466-1.546-0.717-2.296-0.753-0.749-0.036-1.418 0.245-2.005 0.843v0c-0.369 0.386-0.627 0.824-0.773 1.314-0.156 0.49-0.19 0.993-0.102 1.51v0c0.461 0.475 0.919 0.948 1.375 1.419 0.451 0.466 0.903 0.931 1.354 1.397 0.447 0.461 0.896 0.924 1.347 1.389 0.456 0.47 0.912 0.941 1.368 1.412 0.456 0.47 0.914 0.943 1.375 1.418v0c0.268-0.053 0.602-0.184 1.002-0.393 0.395-0.204 0.755-0.478 1.081-0.821z" fill="#000000" data-fill-palette-color="primary"></path><path d="M69.597 47.894l-1.239-1.68c0.484-0.357 0.759-0.707 0.824-1.049 0.066-0.343-0.001-0.713-0.202-1.11-0.201-0.397-0.466-0.819-0.795-1.265v0l-3.17-4.296c-0.229-0.31-0.483-0.672-0.764-1.086-0.285-0.42-0.546-0.831-0.785-1.234v0c-0.265 0.221-0.58 0.47-0.946 0.749-0.362 0.284-0.631 0.504-0.81 0.66v0l-1.45-1.964c0.793-0.586 1.433-1.124 1.918-1.617 0.49-0.496 0.849-0.92 1.075-1.272 0.232-0.356 0.37-0.63 0.414-0.822v0l1.394-1.029 6.66 9.025c0.176 0.239 0.419 0.585 0.728 1.037 0.309 0.452 0.593 0.889 0.853 1.309v0c0.244-0.239 0.532-0.485 0.865-0.739 0.329-0.26 0.58-0.454 0.754-0.582v0l1.45 1.965zM61.586 30.283v0c-0.582 0.429-1.215 0.578-1.9 0.446-0.685-0.132-1.245-0.492-1.678-1.079v0c-0.429-0.582-0.598-1.225-0.506-1.931 0.088-0.711 0.398-1.263 0.931-1.657v0c0.554-0.409 1.171-0.541 1.849-0.395 0.674 0.14 1.226 0.501 1.655 1.083v0c0.433 0.587 0.631 1.213 0.594 1.879-0.043 0.67-0.358 1.221-0.945 1.654z" fill="#000000" data-fill-palette-color="primary"></path><path d="M86.036 37.95v0c-1.249 0.7-2.555 1.064-3.918 1.092-1.36 0.019-2.649-0.327-3.868-1.038-1.228-0.713-2.266-1.827-3.115-3.342v0c-0.598-1.067-0.977-2.166-1.139-3.299-0.171-1.135-0.134-2.236 0.112-3.303 0.249-1.076 0.701-2.065 1.357-2.967 0.659-0.911 1.53-1.67 2.614-2.277v0c1.196-0.67 2.292-1.044 3.286-1.121 1-0.08 1.864 0.059 2.592 0.418 0.731 0.365 1.28 0.874 1.646 1.528v0c0.304 0.542 0.412 1.116 0.326 1.722-0.096 0.603-0.436 1.08-1.021 1.432v0c-0.697 0.414-1.304 0.491-1.822 0.23-0.517-0.26-0.886-0.587-1.108-0.982v0c-0.096-0.171-0.179-0.388-0.248-0.65-0.079-0.265-0.114-0.521-0.104-0.767v0c-0.288-0.21-0.598-0.308-0.93-0.291-0.338 0.019-0.653 0.079-0.944 0.18-0.297 0.105-0.527 0.214-0.688 0.327v0c-0.866 0.555-1.352 1.415-1.457 2.582-0.111 1.17 0.277 2.547 1.165 4.132v0c0.525 0.937 1.133 1.746 1.824 2.427 0.685 0.684 1.444 1.134 2.278 1.349 0.836 0.221 1.725 0.094 2.667-0.38v0c0.794-0.421 1.454-1.039 1.981-1.853 0.53-0.808 0.865-1.696 1.005-2.664v0l1.998 0.541c-0.147 1.313-0.45 2.416-0.91 3.308-0.454 0.889-0.989 1.627-1.606 2.213-0.62 0.58-1.278 1.064-1.973 1.453z" fill="#000000" data-fill-palette-color="primary"></path><path d="M108.75 27.598l-5.684 2.156c-0.143-0.264-0.255-0.492-0.336-0.686-0.085-0.185-0.185-0.403-0.303-0.654v0c-0.423 0.941-0.964 1.695-1.623 2.263-0.65 0.572-1.367 1.006-2.15 1.303v0c-1.282 0.486-2.428 0.484-3.437-0.007-1.007-0.485-1.728-1.299-2.162-2.442v0c-0.364-0.96-0.429-1.874-0.195-2.744 0.228-0.867 0.667-1.669 1.319-2.407 0.645-0.736 1.42-1.409 2.322-2.019 0.905-0.603 1.853-1.115 2.843-1.533v0l-0.593-1.563c-0.199-0.524-0.444-0.97-0.734-1.337-0.287-0.375-0.634-0.623-1.041-0.743-0.401-0.123-0.878-0.068-1.433 0.165v0c-0.372 0.163-0.71 0.385-1.015 0.666-0.307 0.275-0.541 0.592-0.702 0.949v0c0.227 0.123 0.403 0.281 0.526 0.473 0.117 0.194 0.205 0.37 0.265 0.528v0c0.153 0.404 0.15 0.882-0.008 1.433-0.159 0.552-0.593 0.951-1.302 1.198v0c-0.607 0.209-1.145 0.171-1.614-0.113-0.473-0.276-0.813-0.685-1.018-1.229v0c-0.302-0.796-0.281-1.598 0.062-2.407 0.352-0.805 0.944-1.557 1.777-2.257 0.835-0.693 1.834-1.259 2.996-1.7v0c1.762-0.668 3.302-0.732 4.62-0.191 1.311 0.543 2.348 1.819 3.109 3.827v0c0.256 0.676 0.476 1.254 0.658 1.733 0.184 0.486 0.365 0.971 0.54 1.453 0.169 0.485 0.384 1.068 0.642 1.751v0c0.105 0.278 0.246 0.676 0.421 1.194 0.175 0.519 0.331 1.016 0.468 1.492v0c0.324-0.174 0.675-0.335 1.051-0.486 0.374-0.156 0.662-0.273 0.865-0.349v0zM100.124 22.97v0c-0.541 0.27-1.034 0.569-1.48 0.897-0.45 0.337-0.813 0.695-1.088 1.074-0.282 0.381-0.462 0.782-0.541 1.202-0.085 0.422-0.049 0.842 0.109 1.259v0c0.238 0.553 0.571 0.885 0.996 0.998 0.432 0.111 0.869 0.082 1.312-0.085v0c0.461-0.175 0.852-0.439 1.173-0.792 0.33-0.349 0.595-0.746 0.795-1.19v0c-0.077-0.202-0.151-0.398-0.223-0.587-0.072-0.189-0.146-0.385-0.223-0.588v0c-0.137-0.36-0.275-0.726-0.417-1.099-0.139-0.366-0.277-0.729-0.413-1.089z" fill="#000000" data-fill-palette-color="primary"></path><path d="M111.189 27.005l-0.495-2.027c0.584-0.143 0.979-0.361 1.186-0.655 0.2-0.292 0.28-0.66 0.242-1.102-0.045-0.441-0.133-0.93-0.265-1.469v0l-3.132-12.825c-0.093-0.381-0.186-0.817-0.278-1.309-0.101-0.497-0.186-0.977-0.258-1.439v0c-0.33 0.101-0.717 0.21-1.161 0.326-0.443 0.122-0.777 0.221-1.002 0.297v0l-0.579-2.372c0.978-0.239 1.782-0.491 2.412-0.756 0.632-0.259 1.123-0.511 1.474-0.757 0.345-0.237 0.575-0.436 0.688-0.596v0l1.693-0.413 4.529 18.544c0.071 0.289 0.158 0.702 0.261 1.24 0.11 0.536 0.204 1.049 0.282 1.537v0c0.343-0.132 0.711-0.25 1.103-0.353 0.391-0.109 0.691-0.19 0.9-0.241v0l0.58 2.373z" fill="#000000" data-fill-palette-color="primary"></path><path d="M147.437 7.486l-2.126 0.061c-0.224-1.196-0.593-2.189-1.11-2.978-0.516-0.789-1.158-1.376-1.926-1.759-0.775-0.383-1.665-0.55-2.67-0.501v0c-0.918 0.026-1.718 0.306-2.398 0.839-0.681 0.533-1.009 1.208-0.986 2.026v0c0.019 0.662 0.221 1.234 0.607 1.715 0.392 0.482 0.979 0.925 1.761 1.328 0.782 0.41 1.768 0.844 2.957 1.304v0c0.826 0.294 1.671 0.645 2.534 1.052 0.87 0.401 1.678 0.884 2.424 1.451 0.746 0.566 1.357 1.235 1.831 2.005 0.468 0.77 0.717 1.679 0.748 2.725v0c0.036 1.263-0.272 2.397-0.926 3.402-0.66 1.006-1.597 1.8-2.81 2.382-1.213 0.582-2.647 0.897-4.301 0.945v0c-0.851 0.024-1.78-0.084-2.787-0.326-1-0.242-1.947-0.606-2.839-1.094v0l0.13 1.355-2.471 0.071-0.216-7.515 2.116-0.061c0.356 1.787 1.087 3.121 2.193 4.002 1.106 0.874 2.409 1.289 3.908 1.245v0c0.77-0.022 1.441-0.18 2.014-0.473 0.566-0.293 1.004-0.674 1.315-1.143 0.304-0.468 0.448-0.972 0.433-1.512v0c-0.022-0.749-0.299-1.363-0.834-1.842-0.541-0.471-1.208-0.867-2-1.189-0.786-0.322-1.593-0.63-2.419-0.923v0c-1.039-0.403-2.011-0.831-2.916-1.285-0.898-0.461-1.691-0.992-2.377-1.594-0.679-0.595-1.213-1.29-1.6-2.082-0.388-0.793-0.597-1.716-0.627-2.77v0c-0.019-0.662 0.089-1.354 0.325-2.077 0.236-0.723 0.635-1.4 1.198-2.031 0.563-0.624 1.319-1.143 2.267-1.555 0.954-0.413 2.137-0.639 3.548-0.68v0c0.857-0.025 1.8 0.077 2.827 0.303 1.02 0.227 1.902 0.587 2.646 1.08v0l-0.17-1.313 2.512-0.072z" fill="#000000" data-fill-palette-color="primary"></path><path d="M160.012 24.597l-8.124-1.481 0.375-2.053c0.591 0.108 1.035 0.068 1.329-0.118 0.295-0.187 0.518-0.489 0.67-0.908 0.152-0.419 0.277-0.9 0.377-1.446v0l0.969-5.312c0.069-0.379 0.157-0.802 0.262-1.271 0.107-0.475 0.226-0.937 0.356-1.387v0c-0.343-0.042-0.74-0.101-1.194-0.176-0.454-0.069-0.8-0.115-1.035-0.138v0l0.438-2.402c0.97 0.177 1.801 0.273 2.491 0.289 0.697 0.017 1.252-0.012 1.664-0.088 0.419-0.075 0.713-0.162 0.881-0.261v0l1.545 0.281c0.008 0.221-0.014 0.488-0.063 0.802-0.045 0.321-0.076 0.587-0.094 0.797v0c0.817-0.414 1.67-0.705 2.559-0.872 0.888-0.161 1.7-0.174 2.437-0.04v0c0.97 0.177 1.739 0.496 2.308 0.956 0.567 0.467 0.98 1.082 1.24 1.843v0c0.873-0.493 1.802-0.846 2.788-1.057 0.986-0.212 1.898-0.241 2.735-0.089v0c1.708 0.311 2.911 1.035 3.61 2.172 0.691 1.142 0.816 2.923 0.376 5.342v0l-0.849 4.655c-0.053 0.292-0.139 0.706-0.257 1.24-0.118 0.535-0.241 1.041-0.369 1.519v0c0.341 0.014 0.718 0.055 1.131 0.124 0.414 0.062 0.728 0.112 0.94 0.151v0l-0.437 2.402-7.995-1.457 0.375-2.054c0.485 0.088 0.858 0.036 1.12-0.156 0.262-0.193 0.465-0.499 0.61-0.919 0.139-0.421 0.257-0.904 0.357-1.449v0l0.881-4.834c0.231-1.379 0.178-2.371-0.158-2.974-0.336-0.604-0.861-0.981-1.575-1.132v0c-0.541-0.119-1.07-0.119-1.586-0.001-0.511 0.127-0.982 0.302-1.414 0.525v0c0.029 0.445 0.017 0.923-0.035 1.436-0.046 0.514-0.12 1.056-0.225 1.627v0c-0.13 0.711-0.258 1.415-0.385 2.113-0.127 0.698-0.256 1.405-0.387 2.124v0c-0.053 0.292-0.142 0.705-0.267 1.238-0.118 0.535-0.241 1.041-0.37 1.519v0c0.347 0.015 0.721 0.056 1.121 0.122 0.401 0.059 0.718 0.11 0.951 0.153v0l-0.438 2.402-8.154-1.486 0.375-2.054c0.545 0.099 0.961 0.055 1.249-0.132 0.282-0.189 0.495-0.493 0.641-0.914 0.139-0.421 0.257-0.904 0.356-1.449v0l0.87-4.939c0.25-1.369 0.221-2.342-0.086-2.92-0.307-0.578-0.817-0.942-1.531-1.093v0c-0.525-0.096-1.038-0.069-1.539 0.08-0.493 0.144-0.948 0.342-1.365 0.596v0c-0.05 0.272-0.098 0.535-0.143 0.787-0.046 0.253-0.094 0.515-0.144 0.788v0l-1.016 5.572c-0.053 0.292-0.139 0.706-0.257 1.24-0.118 0.535-0.241 1.041-0.369 1.519v0c0.341 0.014 0.691 0.05 1.051 0.109 0.361 0.052 0.648 0.098 0.861 0.137v0z" fill="#000000" data-fill-palette-color="primary"></path><path d="M188.414 32.5v0c-1.428-0.577-2.593-1.408-3.495-2.493-0.905-1.079-1.459-2.323-1.662-3.731-0.21-1.411-0.001-2.892 0.626-4.446v0c0.665-1.647 1.593-2.952 2.782-3.913 1.183-0.965 2.484-1.561 3.902-1.79 1.422-0.22 2.806-0.058 4.153 0.486v0c1.434 0.579 2.591 1.403 3.471 2.472 0.883 1.078 1.424 2.319 1.621 3.725 0.191 1.403-0.034 2.9-0.677 4.49v0c-0.673 1.666-1.574 2.988-2.705 3.967-1.135 0.97-2.391 1.566-3.771 1.789-1.383 0.214-2.798 0.029-4.245-0.556zM189.39 30.435v0c0.799 0.294 1.51 0.256 2.132-0.111 0.625-0.374 1.183-0.936 1.674-1.684 0.485-0.751 0.896-1.543 1.233-2.376v0c0.296-0.733 0.544-1.5 0.743-2.301 0.191-0.797 0.292-1.554 0.305-2.27 0.01-0.71-0.113-1.335-0.369-1.875-0.255-0.54-0.684-0.921-1.287-1.142v0c-0.784-0.295-1.507-0.263-2.169 0.096-0.66 0.353-1.247 0.895-1.761 1.627-0.518 0.723-0.954 1.523-1.308 2.401v0c-0.407 1.008-0.698 2.045-0.873 3.111-0.173 1.059-0.141 2.001 0.094 2.824 0.236 0.824 0.764 1.39 1.586 1.7z" fill="#000000" data-fill-palette-color="primary"></path><path d="M205.285 41.129v0c-1.318-0.796-2.337-1.802-3.054-3.016-0.722-1.209-1.071-2.525-1.049-3.948 0.017-1.426 0.458-2.856 1.324-4.29v0c0.918-1.521 2.041-2.661 3.369-3.422 1.322-0.764 2.701-1.147 4.137-1.147 1.439 0.009 2.78 0.389 4.023 1.139v0c1.324 0.8 2.335 1.797 3.034 2.993 0.701 1.204 1.037 2.516 1.009 3.935-0.034 1.415-0.495 2.858-1.382 4.326v0c-0.929 1.538-2.029 2.7-3.301 3.487-1.274 0.777-2.61 1.166-4.007 1.166-1.399-0.009-2.767-0.416-4.103-1.223zM206.577 39.246v0c0.743 0.417 1.45 0.493 2.122 0.228 0.676-0.27 1.316-0.736 1.921-1.396 0.599-0.664 1.13-1.381 1.594-2.15v0c0.409-0.676 0.775-1.394 1.1-2.154 0.315-0.757 0.535-1.488 0.661-2.192 0.122-0.699 0.101-1.336-0.066-1.91-0.166-0.574-0.529-1.018-1.089-1.333v0c-0.727-0.416-1.447-0.499-2.157-0.249-0.707 0.244-1.373 0.686-1.997 1.327-0.626 0.632-1.184 1.353-1.673 2.162v0c-0.562 0.931-1.014 1.908-1.357 2.933-0.339 1.018-0.457 1.953-0.355 2.803 0.102 0.851 0.534 1.494 1.296 1.931z" fill="#000000" data-fill-palette-color="primary"></path><path d="M219.556 51.349v0c-0.495-0.409-0.923-0.86-1.287-1.354-0.354-0.494-0.584-1.053-0.691-1.676-0.103-0.628-0.003-1.348 0.299-2.158 0.303-0.801 0.885-1.722 1.746-2.764v0l4.988-5.92-1.687-1.394 1.698-2.054c0.527 0.401 1.166 0.636 1.917 0.704 0.75 0.068 1.514-0.023 2.291-0.275 0.773-0.246 1.456-0.61 2.048-1.094v0l1.835 1.518-2.89 3.447 3.139 2.596-1.576 1.905-3.197-2.525-5.06 6.071c-0.314 0.38-0.59 0.788-0.826 1.222-0.233 0.43-0.341 0.853-0.326 1.269 0.021 0.42 0.237 0.8 0.647 1.14v0c0.229 0.189 0.615 0.369 1.16 0.538 0.544 0.169 1.316 0.115 2.316-0.162v0l0.278 2.097c-0.994 0.291-1.882 0.421-2.662 0.389-0.78-0.032-1.456-0.148-2.027-0.348-0.575-0.195-1.039-0.412-1.393-0.652-0.363-0.239-0.61-0.412-0.74-0.52z" fill="#000000" data-fill-palette-color="primary"></path><path d="M232.263 63.286l1.546-1.402c0.404 0.445 0.782 0.686 1.134 0.723 0.357 0.041 0.723-0.058 1.098-0.298 0.375-0.24 0.768-0.546 1.178-0.917v0l3.366-3.092c1.031-0.934 1.656-1.784 1.875-2.547 0.214-0.759 0.02-1.472-0.583-2.138v0c-0.358-0.395-0.802-0.709-1.331-0.94-0.524-0.236-1.026-0.378-1.507-0.426v0l-5.383 4.879c-0.22 0.2-0.542 0.473-0.966 0.82-0.419 0.352-0.825 0.679-1.217 0.981v0c0.28 0.239 0.559 0.506 0.836 0.801 0.282 0.291 0.496 0.517 0.641 0.677v0l-1.81 1.64-5.654-6.239 1.547-1.402c0.404 0.445 0.784 0.689 1.14 0.731 0.352 0.036 0.713-0.068 1.084-0.313 0.366-0.25 0.754-0.561 1.165-0.932v0l9.782-8.866c0.29-0.263 0.63-0.552 1.019-0.868 0.389-0.325 0.77-0.629 1.142-0.912v0c-0.246-0.242-0.526-0.53-0.84-0.867-0.318-0.331-0.565-0.578-0.738-0.739v0l1.809-1.64c0.676 0.746 1.281 1.333 1.814 1.761 0.529 0.432 0.984 0.744 1.368 0.935 0.373 0.191 0.657 0.298 0.852 0.322v0l1.17 1.291-7.019 6.362c0.536 0.089 1.09 0.247 1.662 0.476 0.577 0.234 1.115 0.512 1.616 0.833 0.51 0.322 0.91 0.643 1.201 0.962v0c1.32 1.456 1.839 2.864 1.557 4.223-0.292 1.358-1.351 2.879-3.18 4.564v0l-3.191 2.891c-0.22 0.2-0.54 0.476-0.959 0.828-0.419 0.352-0.825 0.679-1.217 0.981v0c0.262 0.218 0.534 0.478 0.815 0.778 0.282 0.291 0.503 0.524 0.662 0.7v0l-1.81 1.64z" fill="#000000" data-fill-palette-color="primary"></path><path d="M239.66 72.038l1.72-1.183c0.341 0.495 0.681 0.782 1.021 0.859 0.34 0.078 0.712 0.023 1.116-0.165 0.404-0.188 0.834-0.438 1.29-0.752v0l4.4-3.025c0.317-0.218 0.688-0.46 1.111-0.727 0.429-0.27 0.849-0.518 1.26-0.743v0c-0.212-0.272-0.451-0.596-0.717-0.971-0.271-0.371-0.482-0.648-0.633-0.831v0l2.012-1.384c0.559 0.813 1.076 1.469 1.552 1.971 0.479 0.506 0.891 0.879 1.236 1.117 0.348 0.244 0.617 0.391 0.807 0.441v0l0.981 1.428-9.241 6.355c-0.245 0.168-0.599 0.399-1.061 0.693-0.462 0.293-0.908 0.563-1.338 0.808v0c0.23 0.252 0.467 0.548 0.71 0.89 0.248 0.337 0.434 0.595 0.556 0.773v0l-2.012 1.383zM257.529 64.62v0c-0.41-0.596-0.537-1.234-0.382-1.914 0.155-0.68 0.533-1.227 1.134-1.641v0c0.596-0.41 1.244-0.557 1.947-0.441 0.708 0.112 1.249 0.44 1.625 0.986v0c0.39 0.568 0.501 1.188 0.333 1.861-0.163 0.669-0.542 1.209-1.138 1.618v0c-0.601 0.413-1.234 0.59-1.898 0.531-0.668-0.065-1.209-0.399-1.621-1z" fill="#000000" data-fill-palette-color="primary"></path><path d="M249.052 88.824v0c-0.716-1.387-1.04-2.774-0.973-4.161 0.07-1.381 0.52-2.659 1.352-3.833 0.828-1.18 2.013-2.168 3.555-2.964v0c1.327-0.685 2.725-1.03 4.197-1.036 1.462-0.01 2.827 0.339 4.096 1.044 1.269 0.706 2.272 1.773 3.009 3.202v0c0.412 0.798 0.707 1.634 0.884 2.508 0.171 0.877 0.149 1.762-0.066 2.656-0.209 0.891-0.677 1.759-1.403 2.606-0.72 0.843-1.771 1.606-3.152 2.287v0l-5.003-9.275c-1.026 0.53-1.884 1.136-2.574 1.818-0.683 0.679-1.11 1.436-1.28 2.269-0.174 0.842-0.006 1.755 0.501 2.739v0c0.198 0.384 0.492 0.784 0.881 1.199 0.383 0.418 0.861 0.799 1.433 1.142 0.572 0.343 1.239 0.596 1.999 0.758v0l-0.538 1.897c-1.326-0.182-2.442-0.534-3.348-1.054-0.907-0.52-1.643-1.121-2.208-1.803-0.574-0.684-1.028-1.351-1.362-1.999zM257.635 80.997v0l2.713 5.259c0.789-0.43 1.365-0.868 1.728-1.314 0.36-0.437 0.557-0.88 0.59-1.331 0.034-0.451-0.067-0.904-0.302-1.36v0c-0.434-0.84-1.073-1.343-1.918-1.507-0.845-0.164-1.782-0.08-2.811 0.253z" fill="#000000" data-fill-palette-color="primary"></path><path d="M255.958 105.415v0c-0.3-0.868-0.481-1.756-0.543-2.663-0.063-0.907-0.002-1.653 0.181-2.239v0l-0.89 0.372-0.796-2.309 5.181-1.915 0.68 1.973c-0.587 0.267-1.059 0.701-1.415 1.303-0.359 0.595-0.567 1.289-0.623 2.079-0.056 0.791 0.063 1.611 0.356 2.461v0c0.119 0.345 0.28 0.657 0.484 0.937 0.21 0.278 0.471 0.484 0.781 0.62 0.303 0.131 0.626 0.138 0.972 0.018v0c0.383-0.132 0.649-0.377 0.796-0.735 0.148-0.358 0.246-0.831 0.293-1.419 0.045-0.594 0.078-1.327 0.099-2.2v0c0.027-0.709 0.061-1.429 0.103-2.157 0.042-0.729 0.158-1.426 0.35-2.093 0.185-0.664 0.503-1.256 0.952-1.775 0.445-0.511 1.074-0.906 1.885-1.186v0c0.587-0.203 1.207-0.291 1.859-0.266 0.65 0.019 1.294 0.179 1.933 0.48 0.633 0.303 1.218 0.766 1.755 1.388 0.528 0.618 0.963 1.425 1.306 2.422v0c0.187 0.543 0.316 1.195 0.386 1.957 0.068 0.755 0.013 1.435-0.165 2.039v0l0.882-0.304 0.796 2.309-5.374 1.853-0.68-1.973c0.667-0.366 1.188-0.824 1.562-1.375 0.383-0.547 0.607-1.16 0.673-1.84 0.072-0.682-0.018-1.387-0.269-2.115v0c-0.176-0.511-0.457-0.932-0.843-1.263-0.386-0.331-0.872-0.396-1.46-0.193v0c-0.466 0.161-0.78 0.451-0.942 0.871-0.156 0.418-0.228 0.943-0.218 1.576 0.009 0.626 0.011 1.325 0.006 2.099v0c0.018 1.151-0.068 2.206-0.259 3.165-0.191 0.959-0.535 1.785-1.032 2.478-0.497 0.693-1.221 1.204-2.172 1.531v0c-1.054 0.363-2.016 0.402-2.886 0.117-0.872-0.292-1.625-0.797-2.259-1.515-0.636-0.724-1.117-1.562-1.445-2.513z" fill="#000000" data-fill-palette-color="primary"></path><path d="M12.641 142.981c0-1.535 1.244-2.779 2.779-2.779 1.535 0 2.779 1.244 2.779 2.779 0 1.535-1.244 2.779-2.779 2.779-1.535 0-2.779-1.244-2.779-2.779z" fill="#000000" data-fill-palette-color="primary"></path><path d="M267.717 142.981c0-1.535 1.244-2.779 2.779-2.779 1.535 0 2.779 1.244 2.779 2.779 0 1.535-1.244 2.779-2.779 2.779-1.535 0-2.779-1.244-2.779-2.779z" fill="#000000" data-fill-palette-color="primary"></path></g><g id="text-1"><path d="M24.055 190.314l-0.686-2.036c0.864-0.291 1.443-0.636 1.737-1.033 0.289-0.39 0.406-0.835 0.352-1.338-0.053-0.495-0.183-1.018-0.39-1.568v0l-0.3-0.797-5.07 1.707c-0.551 0.185-1.079 0.353-1.585 0.502-0.499 0.147-0.89 0.246-1.171 0.298v0l1.39 4.129c0.209 0.621 0.552 1.172 1.027 1.653 0.469 0.483 1.093 0.801 1.871 0.953 0.772 0.154 1.711 0.044 2.819-0.33v0l0.676 2.007-6.841 2.133-5.491-16.304 2.036-0.686c0.179 0.467 0.376 0.843 0.593 1.126 0.208 0.279 0.525 0.447 0.95 0.503 0.429 0.048 1.057-0.067 1.883-0.345v0l11.83-3.984c0.551-0.185 1.09-0.349 1.619-0.492 0.523-0.14 0.922-0.246 1.198-0.318v0c-0.129-0.32-0.284-0.728-0.466-1.222-0.172-0.491-0.309-0.844-0.41-1.06v0l2.382-0.802 5.2 15.44-5.931 2.201-0.685-2.036c1.133-0.382 1.922-0.865 2.366-1.449 0.445-0.585 0.668-1.201 0.671-1.851-0.002-0.641-0.105-1.233-0.31-1.777v0l-0.404-1.104c-0.147-0.435-0.329-0.787-0.548-1.056-0.219-0.268-0.545-0.422-0.979-0.461-0.44-0.037-1.06 0.079-1.86 0.348v0l-4.629 1.559 1.22 3.62 2.637-1.027 0.798 2.372z" fill="#000000" data-fill-palette-color="primary"></path><path d="M23.52 208.895v0c-0.434-0.825-0.753-1.687-0.959-2.587-0.202-0.893-0.256-1.648-0.159-2.263v0l-0.842 0.511-1.15-2.188 4.907-2.728 0.985 1.874c-0.552 0.359-0.96 0.867-1.224 1.525-0.274 0.655-0.375 1.384-0.305 2.186 0.062 0.799 0.304 1.603 0.729 2.41v0c0.173 0.329 0.386 0.618 0.639 0.866 0.253 0.249 0.542 0.413 0.866 0.495 0.328 0.087 0.657 0.044 0.986-0.129v0c0.365-0.192 0.596-0.477 0.694-0.857 0.089-0.383 0.112-0.875 0.069-1.479-0.048-0.6-0.13-1.336-0.244-2.207v0c-0.081-0.72-0.158-1.447-0.23-2.179-0.066-0.736-0.054-1.452 0.038-2.149 0.082-0.7 0.31-1.342 0.681-1.927 0.363-0.587 0.93-1.084 1.701-1.489v0c0.556-0.292 1.166-0.475 1.829-0.549 0.654-0.077 1.325-0.013 2.012 0.19 0.681 0.207 1.335 0.58 1.962 1.12 0.627 0.54 1.189 1.283 1.686 2.227v0c0.273 0.52 0.504 1.155 0.691 1.903 0.187 0.749 0.238 1.439 0.151 2.073v0l0.834-0.438 1.151 2.188-5.103 2.682-0.986-1.874c0.616-0.469 1.069-1.008 1.359-1.618 0.293-0.604 0.425-1.253 0.395-1.948-0.038-0.697-0.238-1.39-0.599-2.077v0c-0.255-0.484-0.599-0.864-1.034-1.139-0.441-0.272-0.939-0.262-1.495 0.03v0c-0.442 0.233-0.713 0.573-0.813 1.023-0.097 0.44-0.09 0.975 0.019 1.604 0.109 0.629 0.223 1.332 0.342 2.109v0c0.187 1.153 0.258 2.226 0.215 3.218-0.043 0.992-0.263 1.874-0.658 2.647-0.389 0.769-1.035 1.391-1.938 1.865v0c-0.998 0.525-1.959 0.709-2.88 0.553-0.913-0.154-1.744-0.545-2.494-1.173-0.741-0.625-1.35-1.393-1.828-2.301z" fill="#000000" data-fill-palette-color="primary"></path><path d="M33.172 224.096v0c-0.382-0.532-0.687-1.083-0.913-1.652-0.225-0.579-0.309-1.188-0.252-1.827 0.062-0.643 0.344-1.321 0.848-2.032 0.504-0.711 1.312-1.467 2.426-2.267v0l6.411-4.533-1.289-1.794 2.197-1.579c0.407 0.531 0.971 0.928 1.693 1.192 0.723 0.254 1.497 0.359 2.322 0.315 0.825-0.044 1.588-0.226 2.289-0.547v0l1.408 1.958-3.721 2.636 2.413 3.357-2.041 1.466-2.486-3.303-6.526 4.652c-0.406 0.292-0.781 0.62-1.127 0.984-0.336 0.366-0.55 0.757-0.642 1.173-0.091 0.406 0.024 0.831 0.343 1.276v0c0.177 0.247 0.51 0.524 0.997 0.831 0.483 0.302 1.256 0.445 2.318 0.43v0l-0.277 2.133c-1.051 0.031-1.954-0.068-2.71-0.299-0.754-0.24-1.387-0.53-1.897-0.869-0.516-0.336-0.917-0.668-1.202-0.996-0.289-0.333-0.483-0.568-0.582-0.705z" fill="#000000" data-fill-palette-color="primary"></path><path d="M50.218 242.879l-4.217-4.491c0.189-0.243 0.358-0.438 0.506-0.586 0.138-0.149 0.304-0.327 0.497-0.536v0c-1.041-0.033-1.956-0.248-2.746-0.646-0.786-0.393-1.467-0.897-2.045-1.512v0c-0.952-1.014-1.396-2.089-1.332-3.225 0.064-1.135 0.547-2.126 1.448-2.972v0c0.763-0.717 1.596-1.132 2.498-1.247 0.902-0.115 1.823-0.012 2.764 0.309 0.95 0.321 1.884 0.788 2.802 1.4 0.917 0.612 1.763 1.3 2.537 2.066v0l1.233-1.158c0.414-0.388 0.737-0.789 0.97-1.203 0.238-0.418 0.335-0.838 0.291-1.259-0.039-0.427-0.274-0.854-0.705-1.284v0c-0.297-0.287-0.636-0.519-1.018-0.699-0.377-0.184-0.765-0.282-1.166-0.295v0c-0.023 0.262-0.101 0.489-0.236 0.681-0.14 0.187-0.271 0.338-0.395 0.454v0c-0.32 0.301-0.768 0.485-1.343 0.552-0.58 0.063-1.122-0.188-1.625-0.754v0c-0.434-0.492-0.608-1.013-0.524-1.564 0.075-0.552 0.326-1.029 0.755-1.432v0c0.63-0.592 1.392-0.881 2.285-0.867 0.893 0.014 1.826 0.277 2.799 0.791 0.973 0.513 1.892 1.23 2.757 2.151v0c1.308 1.394 1.964 2.812 1.966 4.256 0.002 1.443-0.789 2.909-2.376 4.398v0c-0.537 0.504-0.995 0.934-1.373 1.29-0.384 0.361-0.77 0.714-1.159 1.06-0.388 0.346-0.851 0.771-1.388 1.275v0c-0.222 0.208-0.541 0.494-0.959 0.858-0.418 0.364-0.823 0.703-1.215 1.016v0c0.279 0.238 0.565 0.503 0.857 0.794 0.287 0.296 0.507 0.525 0.659 0.687v0zM51.218 232.99v0c-0.465-0.397-0.94-0.739-1.423-1.026-0.478-0.292-0.952-0.496-1.421-0.612-0.46-0.115-0.904-0.129-1.332-0.042-0.428 0.087-0.807 0.285-1.137 0.595v0c-0.429 0.431-0.613 0.872-0.551 1.323 0.067 0.447 0.263 0.842 0.586 1.187v0c0.342 0.364 0.742 0.633 1.201 0.805 0.453 0.167 0.924 0.259 1.41 0.274v0c0.163-0.153 0.318-0.298 0.466-0.437 0.153-0.143 0.308-0.289 0.465-0.437v0c0.286-0.268 0.574-0.539 0.864-0.811 0.295-0.277 0.586-0.55 0.872-0.819z" fill="#000000" data-fill-palette-color="primary"></path><path d="M54.754 246.695l11.259-14.566c0.24-0.31 0.517-0.663 0.832-1.06 0.325-0.398 0.65-0.774 0.975-1.128v0c-0.289-0.189-0.62-0.424-0.993-0.704-0.377-0.274-0.668-0.478-0.873-0.611v0l1.512-1.956c0.807 0.624 1.518 1.101 2.134 1.432 0.606 0.332 1.112 0.561 1.518 0.687 0.416 0.125 0.722 0.182 0.918 0.171v0l1.394 1.078-5.837 7.552c0.979-0.063 1.851 0.035 2.616 0.293 0.756 0.26 1.401 0.596 1.935 1.009v0c1.031 0.797 1.733 1.762 2.104 2.894 0.372 1.142 0.4 2.371 0.082 3.688-0.322 1.322-0.993 2.643-2.013 3.963v0c-1.066 1.379-2.274 2.417-3.624 3.115-1.35 0.698-2.73 0.997-4.14 0.898-1.4-0.1-2.754-0.656-4.063-1.668v0c-0.465-0.359-0.976-0.913-1.534-1.66-0.558-0.747-0.895-1.669-1.012-2.767v0l-1.643 0.536zM66.019 239.626l-4.647 6.012c-0.45 0.583-0.714 1.117-0.792 1.604-0.076 0.496-0.03 0.933 0.139 1.311 0.178 0.377 0.406 0.69 0.684 0.938v0c0.757 0.611 1.535 0.853 2.332 0.727 0.798-0.126 1.583-0.501 2.355-1.125 0.772-0.624 1.485-1.358 2.138-2.202v0c0.607-0.786 1.09-1.603 1.448-2.453 0.353-0.854 0.493-1.659 0.42-2.416-0.073-0.756-0.452-1.387-1.137-1.891v0c-0.44-0.314-0.915-0.511-1.427-0.591-0.516-0.083-1.021-0.055-1.513 0.086z" fill="#000000" data-fill-palette-color="primary"></path><path d="M71.102 258.831l1.074-1.825c0.524 0.308 0.965 0.431 1.324 0.368 0.356-0.073 0.674-0.286 0.952-0.639 0.284-0.35 0.569-0.767 0.853-1.25v0l6.793-11.544c0.199-0.338 0.435-0.72 0.709-1.146 0.284-0.429 0.565-0.84 0.843-1.232v0c-0.311-0.151-0.671-0.344-1.082-0.578-0.409-0.225-0.72-0.388-0.934-0.491v0l1.254-2.131c0.879 0.517 1.642 0.899 2.288 1.147 0.649 0.256 1.182 0.421 1.601 0.495 0.428 0.072 0.739 0.09 0.932 0.055v0l1.519 0.894-9.814 16.679c-0.154 0.262-0.38 0.626-0.679 1.093-0.304 0.464-0.6 0.901-0.889 1.311v0c0.341 0.153 0.692 0.329 1.054 0.526 0.359 0.203 0.631 0.36 0.817 0.469v0l-1.253 2.131z" fill="#000000" data-fill-palette-color="primary"></path><path d="M82.93 265.407l0.894-1.919c0.551 0.257 0.993 0.332 1.326 0.226 0.342-0.109 0.64-0.35 0.895-0.723 0.262-0.37 0.511-0.809 0.748-1.317v0l2.286-4.904c0.166-0.355 0.366-0.761 0.601-1.217 0.232-0.451 0.468-0.885 0.708-1.303v0c-0.321-0.127-0.695-0.283-1.124-0.467-0.428-0.185-0.757-0.319-0.986-0.404v0l1.049-2.25c0.906 0.422 1.697 0.731 2.374 0.928 0.676 0.196 1.229 0.312 1.659 0.348 0.427 0.028 0.738 0.016 0.933-0.035v0l1.589 0.741-4.803 10.304c-0.128 0.276-0.319 0.66-0.571 1.153-0.252 0.493-0.506 0.957-0.759 1.39v0c0.335 0.112 0.699 0.251 1.09 0.419 0.382 0.171 0.672 0.302 0.868 0.393v0l-1.045 2.241zM94.728 249.734v0c-0.673-0.314-1.115-0.806-1.323-1.478-0.215-0.674-0.166-1.348 0.148-2.021v0c0.311-0.667 0.803-1.131 1.476-1.391 0.673-0.26 1.315-0.248 1.927 0.037v0c0.631 0.294 1.047 0.775 1.25 1.444 0.203 0.668 0.149 1.336-0.162 2.003v0c-0.314 0.673-0.78 1.153-1.397 1.439-0.612 0.289-1.251 0.278-1.919-0.033z" fill="#000000" data-fill-palette-color="primary"></path><path d="M102.446 273.637v0c-0.886-0.291-1.715-0.688-2.488-1.191-0.767-0.501-1.329-1.006-1.688-1.515v0l-0.249 0.953-2.349-0.773 1.628-5.373 2.012 0.661c-0.147 0.641-0.087 1.291 0.181 1.948 0.259 0.661 0.693 1.255 1.302 1.782 0.6 0.532 1.333 0.94 2.199 1.225v0c0.353 0.116 0.707 0.175 1.062 0.178 0.355 0.003 0.677-0.08 0.966-0.247 0.296-0.166 0.502-0.425 0.619-0.778v0c0.129-0.391 0.096-0.758-0.098-1.099-0.202-0.337-0.528-0.707-0.978-1.111-0.452-0.398-1.022-0.869-1.711-1.415v0c-0.559-0.461-1.12-0.93-1.681-1.407-0.559-0.483-1.049-1.006-1.468-1.57-0.427-0.56-0.711-1.179-0.85-1.858-0.148-0.674-0.086-1.425 0.186-2.253v0c0.196-0.597 0.507-1.152 0.932-1.667 0.417-0.51 0.942-0.931 1.578-1.262 0.633-0.325 1.363-0.512 2.189-0.56 0.826-0.048 1.747 0.094 2.761 0.427v0c0.558 0.184 1.165 0.479 1.82 0.887 0.655 0.407 1.172 0.869 1.55 1.384v0l0.294-0.895 2.349 0.772-1.801 5.477-2.012-0.662c0.117-0.765 0.067-1.468-0.149-2.107-0.21-0.638-0.567-1.196-1.071-1.675-0.512-0.474-1.138-0.833-1.875-1.075v0c-0.52-0.171-1.031-0.204-1.535-0.1-0.506 0.111-0.857 0.465-1.053 1.062v0c-0.156 0.475-0.114 0.908 0.127 1.3 0.237 0.384 0.613 0.763 1.129 1.139 0.516 0.376 1.087 0.802 1.713 1.278v0c0.936 0.699 1.734 1.42 2.393 2.163 0.659 0.743 1.115 1.529 1.368 2.359 0.255 0.823 0.224 1.72-0.095 2.689v0c-0.352 1.072-0.914 1.872-1.685 2.4-0.763 0.524-1.632 0.822-2.608 0.892-0.967 0.066-1.939-0.062-2.914-0.383z" fill="#000000" data-fill-palette-color="primary"></path><path d="M123.472 277.697l0.329-2.092c0.601 0.094 1.053 0.046 1.356-0.146 0.311-0.197 0.538-0.51 0.681-0.939 0.143-0.429 0.257-0.92 0.344-1.474v0l0.688-4.579c0.219-1.395 0.171-2.462-0.144-3.202-0.315-0.74-0.922-1.181-1.823-1.322v0c-0.534-0.084-1.083-0.05-1.646 0.1-0.564 0.151-1.051 0.358-1.462 0.622v0l-1.142 7.277c-0.047 0.3-0.124 0.722-0.23 1.266-0.113 0.543-0.228 1.058-0.345 1.546v0c0.373 0.018 0.765 0.052 1.174 0.102 0.408 0.057 0.719 0.103 0.932 0.137v0l-0.383 2.442-8.438-1.325 0.328-2.092c0.601 0.094 1.056 0.046 1.366-0.144 0.305-0.198 0.522-0.513 0.651-0.944 0.136-0.43 0.247-0.922 0.334-1.476v0l2.078-13.232c0.061-0.387 0.14-0.829 0.239-1.327 0.106-0.503 0.217-0.988 0.331-1.456v0c-0.345-0.027-0.751-0.073-1.219-0.14-0.463-0.059-0.812-0.097-1.049-0.113v0l0.383-2.442c1.008 0.158 1.857 0.233 2.549 0.225 0.697 0 1.254-0.042 1.671-0.127 0.424-0.091 0.72-0.188 0.887-0.291v0l1.742 0.273-1.491 9.499c0.482-0.28 1.024-0.509 1.626-0.688 0.596-0.18 1.196-0.304 1.802-0.374 0.606-0.069 1.122-0.07 1.549-0.003v0c1.975 0.31 3.282 1.09 3.92 2.339 0.644 1.257 0.78 3.131 0.409 5.623v0l-0.677 4.314c-0.047 0.3-0.124 0.722-0.229 1.266-0.113 0.543-0.228 1.058-0.346 1.546v0c0.347 0.013 0.724 0.045 1.134 0.096 0.415 0.058 0.739 0.106 0.973 0.142v0l-0.384 2.443z" fill="#000000" data-fill-palette-color="primary"></path><path d="M144.98 279.72v0c-1.587 0.009-2.991-0.334-4.211-1.03-1.22-0.702-2.171-1.697-2.854-2.983-0.676-1.286-1.019-2.811-1.029-4.573v0c-0.009-1.52 0.318-2.944 0.979-4.272 0.668-1.328 1.614-2.404 2.838-3.228 1.218-0.818 2.644-1.231 4.279-1.24v0c0.912-0.005 1.801 0.115 2.667 0.359 0.873 0.245 1.662 0.669 2.368 1.274 0.713 0.604 1.285 1.425 1.716 2.462 0.425 1.038 0.631 2.34 0.62 3.908v0l-10.688 0.253c0.007 1.175 0.161 2.228 0.464 3.159 0.296 0.93 0.783 1.667 1.462 2.21 0.679 0.536 1.582 0.802 2.71 0.795v0c0.432-0.002 0.925-0.08 1.478-0.231 0.553-0.159 1.116-0.418 1.687-0.78 0.579-0.361 1.116-0.847 1.613-1.458v0l1.467 1.36c-0.777 1.112-1.607 1.958-2.488 2.537-0.888 0.586-1.771 0.979-2.648 1.18-0.884 0.194-1.694 0.293-2.43 0.298zM141.855 268.369v0l5.988-0.034c-0.025-0.912-0.155-1.634-0.387-2.166-0.226-0.526-0.535-0.909-0.929-1.15-0.393-0.234-0.85-0.35-1.37-0.346v0c-0.959 0.005-1.707 0.351-2.243 1.036-0.543 0.685-0.896 1.572-1.059 2.66z" fill="#000000" data-fill-palette-color="primary"></path><path d="M164.399 277.97v0c-1.279 0.215-2.463 0.076-3.554-0.418-1.085-0.502-2.003-1.317-2.754-2.444-0.753-1.134-1.267-2.523-1.544-4.169v0c-0.293-1.738-0.219-3.337 0.22-4.794 0.432-1.463 1.182-2.682 2.251-3.657 1.07-0.968 2.398-1.585 3.983-1.852v0c0.58-0.098 1.109-0.128 1.587-0.092 0.486 0.041 0.946 0.104 1.378 0.189v0l-0.358-2.128c-0.05-0.3-0.112-0.728-0.186-1.284-0.074-0.563-0.131-1.084-0.17-1.564v0c-0.335 0.084-0.738 0.176-1.208 0.275-0.463 0.098-0.814 0.168-1.054 0.209v0l-0.41-2.438c1.006-0.169 1.839-0.368 2.499-0.596 0.655-0.22 1.166-0.436 1.535-0.649 0.374-0.22 0.623-0.406 0.748-0.557v0l1.739-0.293 3.213 19.084c0.05 0.3 0.112 0.724 0.184 1.273 0.072 0.55 0.126 1.075 0.162 1.576v0c0.36-0.102 0.741-0.193 1.146-0.275 0.405-0.075 0.714-0.131 0.927-0.167v0l0.411 2.438-6.105 1.028c-0.059-0.23-0.127-0.472-0.204-0.726-0.077-0.254-0.155-0.494-0.235-0.721v0c-0.584 0.845-1.227 1.481-1.929 1.908-0.696 0.425-1.453 0.707-2.272 0.845zM165.586 274.77v0c0.553-0.093 1.041-0.326 1.465-0.698 0.425-0.366 0.739-0.799 0.942-1.299v0c-0.054-0.32-0.108-0.639-0.161-0.96-0.054-0.32-0.108-0.639-0.162-0.959v0l-1.298-7.713c-0.249-0.136-0.597-0.228-1.044-0.277-0.445-0.041-0.895-0.024-1.347 0.053v0c-0.982 0.186-1.7 0.625-2.152 1.317-0.459 0.694-0.724 1.519-0.795 2.477-0.065 0.956-0.012 1.941 0.158 2.953v0c0.151 0.899 0.411 1.77 0.779 2.612 0.373 0.834 0.861 1.495 1.464 1.983 0.595 0.482 1.312 0.652 2.151 0.511z" fill="#000000" data-fill-palette-color="primary"></path><path d="M190.983 270.626l-0.794-1.963c0.564-0.228 0.92-0.5 1.069-0.815 0.153-0.324 0.18-0.707 0.082-1.148-0.092-0.444-0.243-0.925-0.453-1.445v0l-2.03-5.016c-0.147-0.363-0.307-0.786-0.481-1.27-0.171-0.477-0.328-0.946-0.47-1.405v0c-0.312 0.148-0.681 0.316-1.108 0.503-0.427 0.187-0.749 0.336-0.967 0.446v0l-0.931-2.301c0.927-0.375 1.692-0.743 2.296-1.105 0.604-0.361 1.067-0.687 1.387-0.976 0.311-0.293 0.515-0.529 0.61-0.706v0l1.625-0.657 4.264 10.538c0.114 0.282 0.266 0.683 0.455 1.204 0.189 0.521 0.355 1.022 0.499 1.503v0c0.31-0.169 0.66-0.34 1.049-0.512 0.386-0.163 0.679-0.286 0.879-0.367v0l0.928 2.292zM187.561 251.309v0c-0.689 0.279-1.35 0.266-1.983-0.039-0.64-0.302-1.099-0.798-1.377-1.486v0c-0.276-0.682-0.28-1.359-0.012-2.029 0.268-0.67 0.715-1.131 1.341-1.384v0c0.645-0.261 1.281-0.238 1.908 0.069 0.627 0.307 1.079 0.802 1.355 1.485v0c0.279 0.689 0.312 1.357 0.101 2.004-0.206 0.644-0.65 1.105-1.333 1.38z" fill="#000000" data-fill-palette-color="primary"></path><path d="M211.023 260.736l-7.385 4.27-1.06-1.833c0.526-0.304 0.841-0.623 0.945-0.956 0.106-0.342 0.08-0.725-0.079-1.149-0.153-0.427-0.37-0.882-0.65-1.367v0l-2.739-4.737c-0.196-0.339-0.409-0.727-0.638-1.164-0.226-0.431-0.441-0.864-0.646-1.3v0c-0.288 0.19-0.63 0.407-1.027 0.652-0.397 0.245-0.695 0.437-0.896 0.577v0l-1.243-2.149c0.865-0.5 1.572-0.972 2.121-1.414 0.548-0.442 0.961-0.828 1.237-1.16 0.267-0.334 0.436-0.595 0.506-0.784v0l1.377-0.796c0.183 0.222 0.307 0.388 0.371 0.499 0.064 0.111 0.13 0.218 0.196 0.32 0.073 0.098 0.211 0.264 0.416 0.497v0c0.204-0.524 0.481-1.043 0.832-1.558 0.356-0.518 0.739-0.989 1.149-1.413 0.404-0.421 0.796-0.741 1.176-0.961v0c1.725-0.997 3.234-1.215 4.528-0.652 1.296 0.569 2.575 1.944 3.836 4.125v0l2.186 3.781c0.152 0.263 0.358 0.64 0.618 1.129 0.26 0.49 0.494 0.963 0.703 1.419v0c0.301-0.221 0.627-0.441 0.977-0.659 0.353-0.212 0.624-0.372 0.811-0.48v0l1.237 2.14-7.385 4.271-1.06-1.834c0.526-0.304 0.847-0.626 0.963-0.966 0.112-0.346 0.089-0.73-0.07-1.153-0.153-0.427-0.37-0.882-0.651-1.368v0l-2.353-3.988c-0.707-1.222-1.403-2.029-2.089-2.42-0.692-0.388-1.451-0.343-2.276 0.133v0c-0.474 0.274-0.879 0.645-1.217 1.114-0.344 0.472-0.595 0.941-0.754 1.407v0c0.156 0.269 0.311 0.538 0.467 0.807 0.159 0.275 0.314 0.544 0.466 0.807v0l2.754 4.763c0.152 0.263 0.358 0.64 0.618 1.129 0.26 0.49 0.494 0.963 0.703 1.419v0c0.284-0.211 0.606-0.429 0.968-0.653 0.359-0.215 0.632-0.377 0.82-0.486v0z" fill="#000000" data-fill-palette-color="primary"></path><path d="M240.554 238.031l-6.791 6.429-1.477-1.56c0.349-0.358 0.607-0.695 0.773-1.011 0.171-0.311 0.19-0.668 0.058-1.073-0.132-0.415-0.497-0.938-1.096-1.571v0l-8.986-9.492-1.127 3.982-2.191-0.604 1.683-9.085 1.42-1.344 12.364 13.06c0.399 0.422 0.782 0.836 1.148 1.243 0.362 0.402 0.625 0.72 0.791 0.953v0c0.222-0.266 0.523-0.588 0.901-0.964 0.378-0.377 0.646-0.639 0.803-0.788v0z" fill="#000000" data-fill-palette-color="primary"></path><path d="M249.184 228.619v0c-0.897 1.116-1.779 1.885-2.646 2.307-0.863 0.416-1.674 0.579-2.433 0.488-0.76-0.1-1.42-0.374-1.978-0.822v0c-0.458-0.368-0.766-0.858-0.924-1.47-0.163-0.616-0.033-1.188 0.39-1.715v0c0.516-0.642 1.045-0.928 1.585-0.857 0.541 0.071 0.983 0.244 1.325 0.518v0c0.137 0.11 0.293 0.288 0.469 0.533 0.18 0.24 0.292 0.473 0.336 0.699v0c0.311 0.033 0.658-0.043 1.042-0.229 0.379-0.181 0.73-0.488 1.052-0.922v0c0.362-0.515 0.569-1.059 0.622-1.632 0.053-0.573-0.026-1.16-0.235-1.762-0.21-0.602-0.522-1.199-0.938-1.793-0.411-0.599-0.904-1.177-1.479-1.734-0.57-0.553-1.188-1.072-1.856-1.556v0c0.101 0.532 0.061 1.223-0.12 2.074-0.185 0.856-0.52 1.618-1.005 2.286v0c-0.733 0.945-1.514 1.647-2.343 2.108-0.833 0.466-1.701 0.704-2.603 0.716-0.902 0.012-1.805-0.163-2.709-0.526-0.904-0.363-1.788-0.891-2.652-1.584v0c-1.137-0.914-1.933-1.978-2.388-3.192-0.46-1.218-0.567-2.492-0.323-3.821 0.245-1.319 0.85-2.579 1.815-3.779v0c0.914-1.137 1.896-1.929 2.948-2.376 1.056-0.451 2.167-0.611 3.335-0.479 1.162 0.128 2.36 0.497 3.594 1.107 1.235 0.62 2.469 1.424 3.701 2.415v0c0.764 0.613 1.551 1.337 2.363 2.171 0.806 0.83 1.537 1.737 2.193 2.723 0.655 0.986 1.144 2.032 1.466 3.14 0.323 1.108 0.375 2.251 0.158 3.428-0.223 1.173-0.81 2.351-1.762 3.536zM240.932 220.691v0c0.283-0.353 0.478-0.751 0.583-1.195 0.105-0.444 0.135-0.896 0.09-1.358-0.05-0.456-0.166-0.883-0.348-1.281v0c-0.816-0.656-1.629-1.24-2.44-1.752-0.815-0.516-1.596-0.914-2.343-1.193-0.752-0.283-1.429-0.394-2.032-0.333-0.604 0.061-1.102 0.336-1.496 0.826v0c-0.406 0.506-0.583 1.061-0.532 1.665 0.061 0.604 0.289 1.198 0.685 1.785 0.394 0.577 0.889 1.104 1.484 1.582v0c0.374 0.3 0.835 0.627 1.383 0.981 0.549 0.363 1.124 0.661 1.726 0.893 0.607 0.236 1.193 0.322 1.757 0.255 0.566-0.057 1.06-0.349 1.483-0.875z" fill="#000000" data-fill-palette-color="primary"></path><path d="M261.497 210.385v0c-0.697 1.228-1.489 2.165-2.376 2.811-0.893 0.643-1.768 1.028-2.625 1.154-0.857 0.127-1.588 0.019-2.192-0.324v0c-0.546-0.31-0.94-0.759-1.182-1.346-0.241-0.587-0.207-1.182 0.103-1.783v0c0.249-0.48 0.549-0.795 0.899-0.946 0.35-0.151 0.699-0.205 1.047-0.163 0.345 0.048 0.65 0.148 0.915 0.298v0c0.153 0.087 0.324 0.215 0.515 0.386 0.191 0.17 0.348 0.365 0.473 0.583v0c0.265 0.026 0.545-0.036 0.84-0.187 0.299-0.157 0.58-0.366 0.845-0.627 0.259-0.265 0.463-0.529 0.614-0.794v0c0.43-0.758 0.58-1.48 0.45-2.168-0.136-0.691-0.457-1.316-0.963-1.874-0.506-0.559-1.082-1.022-1.728-1.389v0c-0.429-0.243-0.934-0.495-1.517-0.756-0.58-0.251-1.196-0.418-1.847-0.501-0.652-0.083-1.28 0.011-1.884 0.281-0.601 0.265-1.128 0.797-1.582 1.596v0c-0.15 0.264-0.294 0.594-0.433 0.989-0.133 0.398-0.246 0.851-0.339 1.357-0.087 0.51-0.122 1.057-0.105 1.641v0l-1.629 0.695-9.529-5.257 4.167-7.34c0.377-0.664 0.567-1.251 0.569-1.763 0.003-0.511-0.392-0.992-1.185-1.441v0l1.01-1.78 4.481 2.8-4.885 8.994 5.049 2.866c0.053-0.545 0.196-1.174 0.431-1.888 0.232-0.723 0.508-1.366 0.828-1.93v0c0.667-1.175 1.416-2.097 2.246-2.767 0.834-0.676 1.71-1.13 2.627-1.364 0.919-0.224 1.839-0.257 2.759-0.099 0.92 0.157 1.806 0.478 2.658 0.961v0c1.457 0.827 2.477 1.876 3.061 3.147 0.589 1.274 0.815 2.607 0.678 3.997-0.146 1.393-0.567 2.703-1.264 3.931z" fill="#000000" data-fill-palette-color="primary"></path><path d="M271.036 189.19v0c-0.57 1.554-1.382 2.749-2.437 3.585-1.063 0.84-2.26 1.387-3.59 1.641-1.328 0.247-2.697 0.281-4.106 0.102-1.416-0.181-2.767-0.507-4.055-0.979v0c-1.281-0.47-2.518-1.128-3.711-1.976-1.202-0.843-2.227-1.824-3.077-2.941-0.847-1.124-1.419-2.34-1.715-3.65-0.29-1.308-0.174-2.675 0.349-4.103v0c0.546-1.49 1.349-2.639 2.407-3.445 1.056-0.8 2.249-1.327 3.579-1.579 1.33-0.253 2.706-0.296 4.126-0.128 1.412 0.172 2.761 0.494 4.049 0.966v0c1.262 0.463 2.494 1.105 3.696 1.927 1.202 0.822 2.234 1.787 3.094 2.894 0.856 1.098 1.434 2.299 1.733 3.603 0.295 1.295 0.181 2.656-0.342 4.083zM268.933 188.214v0c0.26-0.71 0.252-1.383-0.026-2.017-0.272-0.632-0.753-1.222-1.445-1.771-0.693-0.542-1.532-1.051-2.516-1.526-0.984-0.476-2.034-0.918-3.15-1.328v0c-1.249-0.458-2.465-0.85-3.648-1.175-1.187-0.334-2.28-0.541-3.28-0.62-1-0.079-1.855 0.025-2.564 0.312-0.703 0.289-1.2 0.83-1.49 1.622v0c-0.27 0.736-0.272 1.429-0.008 2.08 0.271 0.653 0.752 1.276 1.442 1.867 0.686 0.582 1.516 1.124 2.49 1.625 0.977 0.495 2.036 0.952 3.178 1.37v0c0.856 0.314 1.741 0.609 2.653 0.887 0.919 0.279 1.819 0.494 2.7 0.644 0.88 0.15 1.699 0.202 2.457 0.156 0.758-0.046 1.419-0.239 1.982-0.579 0.564-0.34 0.972-0.856 1.225-1.547z" fill="#000000" data-fill-palette-color="primary"></path></g></svg></g></svg></g></svg></g></svg></g><defs></defs></svg><rect width="279.72" height="279.72" fill="none" stroke="none" visibility="hidden"></rect></g></svg></g></svg>